<svg width="37" height="37" viewBox="0 0 37 37" fill="none" xmlns="http://www.w3.org/2000/svg">
<path d="M36.3173 7.48418L18.6721 0L0 7.91927V16.7772L1.48997 17.4094V29.8518L18.3433 37L35.51 29.7189V17.2633L37 16.6317V7.77371L36.3173 7.48418ZM17.3803 34.1572L3.7271 28.3665V17.786L17.3803 23.5768V34.1572ZM17.3803 21.7509L3.7271 15.9596V15.924L2.23713 15.2919V10.4228L17.3804 16.8462V21.7509H17.3803ZM18.2192 15.3761L3.18966 9.00084L18.6721 2.4345L33.7011 8.80922L18.2192 15.3761ZM33.2729 28.2334L19.0582 34.2623V23.5768L33.2729 17.5468V28.2334ZM34.7629 15.0893L19.0582 21.7509V16.8462L34.7629 10.1852V15.0893Z" fill="white"/>
</svg>
