<svg width="29" height="27" viewBox="0 0 29 27" fill="none" xmlns="http://www.w3.org/2000/svg">
<path d="M24.142 6.39245H20.5309C20.904 4.77414 20.2101 3.11986 18.7469 2.16241C17.9989 1.6722 17.1172 1.41211 16.2004 1.41211C15.3467 1.41211 14.5167 1.63992 13.7991 2.07076L13.7233 2.11664L13.65 2.16558L1.88013 10.0762C0.701211 10.871 0 12.1501 0 13.5002C0 14.8499 0.701211 16.129 1.87628 16.9211L13.65 24.8344L13.7233 24.8833L13.7991 24.9292C14.5167 25.36 15.3467 25.5878 16.2004 25.5878C17.1177 25.5878 17.9989 25.3281 18.7488 24.8361C20.2076 23.8814 20.902 22.2289 20.5309 20.6078H24.142C26.8208 20.6078 29 18.5789 29 16.0849V10.9149C29 8.42146 26.8208 6.39245 24.142 6.39245ZM25.541 16.085C25.541 16.8043 24.9146 17.3875 24.142 17.3875H16.1714L17.1433 21.2603C17.233 21.6189 17.0811 21.9913 16.7577 22.2029C16.5907 22.3125 16.3958 22.3674 16.2004 22.3674C16.018 22.3674 15.835 22.3193 15.6748 22.2231L3.90497 14.3125C3.62506 14.1238 3.45904 13.8219 3.45904 13.5002C3.45904 13.1785 3.62506 12.8761 3.90497 12.6875L15.6748 4.77683C15.835 4.68069 16.018 4.6326 16.2004 4.6326C16.3958 4.6326 16.5907 4.68786 16.7577 4.79702C17.081 5.00865 17.2335 5.38153 17.1433 5.73918L16.1714 9.61294H24.142C24.9146 9.61294 25.541 10.1957 25.541 10.915V16.085Z" fill="white"/>
</svg>
