<svg width="37" height="33" viewBox="0 0 37 33" fill="none" xmlns="http://www.w3.org/2000/svg">
<path d="M36.3701 14.4289C35.7776 13.3703 34.8448 12.7167 33.833 12.6226V8.53689C33.8335 7.40625 33.4679 6.36774 32.8834 5.6288C32.3003 4.88739 31.4822 4.42428 30.5908 4.42483H15.9105C15.7302 4.42483 15.5552 4.33765 15.4224 4.17907L15.4233 4.18099L12.8438 1.11249C12.2424 0.398025 11.45 6.64915e-07 10.6264 6.64915e-07H6.40982C5.51849 -0.000641013 4.69979 0.463201 4.11726 1.20461C3.53278 1.94346 3.16719 2.98206 3.16769 4.1127V12.6226C2.15583 12.7167 1.22295 13.3703 0.630518 14.4295C0.215424 15.1717 0 16.0503 0 16.9371C0 17.4178 0.0632324 17.9024 0.192227 18.3686L3.23822 29.4168C3.25607 29.4801 3.27428 29.5359 3.29755 29.5961C3.43739 29.9552 3.56783 30.308 3.71453 30.6603C3.93638 31.1824 4.19032 31.7402 4.64986 32.2315C4.87807 32.4728 5.15832 32.6796 5.46314 32.8106C5.76846 32.9428 6.09019 33.0005 6.40982 33H30.5908C31.1184 33.0036 31.6155 32.7844 31.989 32.4765C32.5562 32.0103 32.8917 31.4161 33.1476 30.8997C33.3991 30.382 33.5735 29.9 33.6832 29.6449C33.7183 29.5609 33.7371 29.5064 33.7618 29.4168L36.8083 18.368C36.9368 17.9023 37 17.4178 37 16.9371C37 16.0503 36.7851 15.1717 36.3701 14.4289ZM5.69728 4.11279C5.69778 3.85832 5.77489 3.64272 5.90576 3.4735C6.03917 3.30739 6.20913 3.20968 6.40974 3.20903H10.6263C10.8076 3.20903 10.981 3.29621 11.1139 3.45351L13.6931 6.52147L13.6941 6.5233C14.2939 7.23465 15.086 7.63386 15.9106 7.63386H30.5908C30.7914 7.63441 30.9618 7.73231 31.0947 7.89833C31.2257 8.0669 31.3028 8.28251 31.3032 8.53698V12.6039H5.69728V4.11279ZM34.4204 17.3088L31.405 28.2473C31.316 28.4635 31.2326 28.6785 31.1471 28.8778C30.9994 29.2326 30.8339 29.5409 30.7177 29.6788C30.6604 29.7496 30.6219 29.7784 30.6085 29.786L30.5908 29.7909H6.40982C6.28827 29.789 6.27692 29.7697 6.27641 29.7715L6.2423 29.7352C6.1988 29.6813 6.10543 29.5233 5.99031 29.2532C5.88206 29.0031 5.75415 28.6629 5.60051 28.2642L2.57967 17.3088C2.54606 17.1866 2.53024 17.0626 2.52973 16.9372C2.53024 16.7066 2.58559 16.4798 2.69334 16.2867C2.85933 15.9896 3.12961 15.8129 3.41672 15.8129H33.584C33.871 15.8129 34.1413 15.9896 34.3068 16.2861C34.415 16.4791 34.4703 16.7066 34.4703 16.9372C34.4703 17.0619 34.454 17.1873 34.4204 17.3088Z" fill="white"/>
</svg>
