<svg width="51" height="49" viewBox="0 0 51 49" fill="none" xmlns="http://www.w3.org/2000/svg">
<path d="M47.5259 24.5C47.5259 36.6017 37.4956 46.5 25.0129 46.5C12.5303 46.5 2.5 36.6017 2.5 24.5C2.5 12.3983 12.5303 2.5 25.0129 2.5C37.4956 2.5 47.5259 12.3983 47.5259 24.5Z" stroke="#95C0FF" stroke-width="5"/>
<mask id="path-2-outside-1_226_982" maskUnits="userSpaceOnUse" x="15" y="15" width="20" height="20" fill="black">
<rect fill="white" x="15" y="15" width="20" height="20"/>
<path d="M33.712 25.816H25.816V33.712H24.16V25.816H16.264V24.184H24.16V16.288H25.816V24.184H33.712V25.816Z"/>
</mask>
<path d="M33.712 25.816H25.816V33.712H24.16V25.816H16.264V24.184H24.16V16.288H25.816V24.184H33.712V25.816Z" fill="#95C0FF"/>
<path d="M33.712 25.816V26.816H34.712V25.816H33.712ZM25.816 25.816V24.816H24.816V25.816H25.816ZM25.816 33.712V34.712H26.816V33.712H25.816ZM24.16 33.712H23.16V34.712H24.16V33.712ZM24.16 25.816H25.16V24.816H24.16V25.816ZM16.264 25.816H15.264V26.816H16.264V25.816ZM16.264 24.184V23.184H15.264V24.184H16.264ZM24.16 24.184V25.184H25.16V24.184H24.16ZM24.16 16.288V15.288H23.16V16.288H24.16ZM25.816 16.288H26.816V15.288H25.816V16.288ZM25.816 24.184H24.816V25.184H25.816V24.184ZM33.712 24.184H34.712V23.184H33.712V24.184ZM33.712 24.816H25.816V26.816H33.712V24.816ZM24.816 25.816V33.712H26.816V25.816H24.816ZM25.816 32.712H24.16V34.712H25.816V32.712ZM25.16 33.712V25.816H23.16V33.712H25.16ZM24.16 24.816H16.264V26.816H24.16V24.816ZM17.264 25.816V24.184H15.264V25.816H17.264ZM16.264 25.184H24.16V23.184H16.264V25.184ZM25.16 24.184V16.288H23.16V24.184H25.16ZM24.16 17.288H25.816V15.288H24.16V17.288ZM24.816 16.288V24.184H26.816V16.288H24.816ZM25.816 25.184H33.712V23.184H25.816V25.184ZM32.712 24.184V25.816H34.712V24.184H32.712Z" fill="#95C0FF" mask="url(#path-2-outside-1_226_982)"/>
</svg>
