<svg width="30" height="30" viewBox="0 0 30 30" fill="none" xmlns="http://www.w3.org/2000/svg">
<path d="M27.4376 6.61248L25.4084 7.98346C26.7614 9.9883 27.5506 12.3958 27.551 15C27.5505 18.4693 26.148 21.5995 23.875 23.875C21.5999 26.1476 18.4698 27.5501 14.9999 27.5506C11.5301 27.5501 8.4 26.1476 6.12539 23.875C3.85184 21.5995 2.44934 18.4693 2.44934 15C2.44934 11.5302 3.85184 8.40059 6.12539 6.12492C8.1293 4.1226 10.797 2.7975 13.7753 2.50981V6.86912H16.2246V3.91768e-07H14.9999C10.8613 -0.000937108 7.10385 1.68076 4.3933 4.39336C1.68064 7.10397 -0.00052722 10.8615 1.24025e-07 15C-0.00052722 19.1386 1.6807 22.8956 4.3933 25.6067C7.10385 28.3188 10.8613 30.0011 14.9999 30C19.1385 30.0011 22.896 28.3188 25.6066 25.6067C28.3192 22.8956 30.0009 19.1386 29.9999 15C30.0009 11.8973 29.0549 9.00545 27.4376 6.61248Z" fill="white"/>
<path d="M9.08987 7.04541C8.80469 7.04541 8.52948 7.14883 8.31473 7.33615C7.87416 7.72123 7.78229 8.38006 8.11692 8.89053L13.4657 16.0683C13.5207 16.1582 13.5835 16.2456 13.6565 16.3301C14.0146 16.7412 14.533 16.9764 15.0785 16.9764C15.534 16.9764 15.9745 16.8111 16.3182 16.5115C17.1018 15.8281 17.1832 14.6339 16.4985 13.8483C16.4261 13.7663 16.3472 13.6909 16.2947 13.651L9.86307 7.33311C9.64827 7.14777 9.37358 7.04541 9.08987 7.04541Z" fill="white"/>
</svg>
